<svg fill="none" width="37" height="36">
  <path fill="#ffffff" d="M 18.5 0 C 8.256 0 0 8.21 0 18.277 0 26.772 5.908 33.965 13.875 36 v -3.677 c -5.817 -1.731 -7.371 -6.086 -7.443 -6.264 a 0.535 0.535 0 0 1 0.253 -0.59 c 0.162 -0.124 0.415 -0.089 0.596 0.09 0.036 0 3.161 3.034 7.028 2.963 0.289 -0.768 0.758 -1.535 1.5 -2.089 -4.97 -0.75 -8.871 -3.623 -8.871 -8.156 0 -1.857 0.776 -3.73 2.15 -5.248 -0.434 -1.731 -0.615 -3.855 0.162 -5.408 1.97 0.16 3.902 1.143 5.348 2.017 1.21 -0.285 2.493 -0.5 3.902 -0.5 s 2.692 0.215 3.902 0.5 c 1.446 -0.874 3.379 -1.856 5.348 -2.017 0.777 1.553 0.56 3.677 0.163 5.408 1.373 1.517 2.15 3.391 2.15 5.248 0 4.533 -3.903 7.407 -8.871 8.156 1.554 1.196 1.933 3.302 1.933 4.784 V 36 C 31.092 33.965 37 26.772 37 18.277 37 8.21 28.69 0 18.5 0 z" />
</svg>
